<svg width="227" height="54" viewBox="0 0 227 54" fill="none" xmlns="http://www.w3.org/2000/svg">
<path d="M64.7844 39.0255H79.7571V34.763H69.3523V14.8563H64.7844V39.0255Z" fill="#B4B4B4"/>
<path d="M88.7542 39.5302C90.4285 39.5659 92.0813 39.1484 93.5379 38.3221C94.9106 37.5207 96.0325 36.3524 96.7776 34.9483C97.5832 33.4121 97.9873 31.6972 97.9523 29.9629C97.9873 28.2419 97.5892 26.5396 96.7947 25.0125C96.0535 23.6013 94.931 22.4264 93.555 21.6217C92.0914 20.8204 90.4502 20.3991 88.7817 20.3961C87.1131 20.3931 85.4705 20.8086 84.004 21.6045C82.6315 22.4061 81.5096 23.5744 80.7643 24.9783C79.9561 26.5135 79.5519 28.2291 79.5896 29.9637C79.5559 31.6884 79.9478 33.3948 80.7308 34.932C81.4726 36.3327 82.5881 37.5005 83.9534 38.3057C85.4121 39.1439 87.0722 39.5673 88.7542 39.5302ZM88.7542 35.2669C88.1394 35.3054 87.5244 35.1959 86.9607 34.9476C86.397 34.6993 85.901 34.3194 85.5144 33.8399C84.7348 32.7022 84.3516 31.3394 84.4239 29.9621C84.3596 28.6094 84.7226 27.2708 85.4615 26.1358C85.8425 25.6339 86.3432 25.2355 86.9178 24.9769C87.4925 24.7184 88.1228 24.608 88.7511 24.6558C89.3702 24.6141 89.9902 24.7238 90.5574 24.9752C91.1247 25.2267 91.6223 25.6125 92.0072 26.0992C92.7959 27.2269 93.1857 28.5855 93.1149 29.9598C93.1726 31.3196 92.7902 32.6618 92.0243 33.7869C91.6446 34.2853 91.147 34.6815 90.5762 34.9399C90.0053 35.1982 89.3792 35.3106 88.7542 35.2669Z" fill="#B4B4B4"/>
<path d="M106.981 39.5301C107.774 39.5376 108.565 39.4359 109.331 39.2279C110.029 39.039 110.696 38.7504 111.312 38.371V40.2024C111.355 40.8075 111.17 41.4067 110.791 41.8811C110.417 42.3518 109.916 42.7067 109.348 42.9047C108.732 43.1419 108.077 43.2616 107.418 43.2575C106.8 43.2621 106.189 43.1181 105.638 42.8377C105.109 42.5656 104.675 42.138 104.396 41.6123L100.166 43.6603C100.882 44.8569 101.909 45.8372 103.137 46.4973C104.433 47.2268 105.897 47.6029 107.384 47.5878C108.641 47.5987 109.892 47.4174 111.094 47.0503C112.164 46.7431 113.151 46.198 113.98 45.4558C114.783 44.7261 115.35 43.7736 115.609 42.72C115.709 42.3286 115.777 41.9294 115.81 41.5266C115.856 41.1086 115.879 40.6884 115.877 40.2678V20.8987H111.882V21.9059C111.253 21.4173 110.543 21.0424 109.784 20.7982C108.956 20.5205 108.087 20.3843 107.214 20.3955C105.614 20.3578 104.038 20.7895 102.681 21.6371C101.386 22.4751 100.346 23.654 99.677 25.0444C98.9494 26.5799 98.5876 28.2631 98.6199 29.962C98.5925 31.6479 98.9484 33.3179 99.6606 34.8462C100.314 36.2317 101.329 37.4157 102.598 38.2737C103.898 39.1259 105.426 39.564 106.981 39.5301ZM107.719 35.4678C106.853 35.5044 106.001 35.2439 105.304 34.7293C104.662 34.2144 104.179 33.5274 103.911 32.7484C103.6 31.8529 103.447 30.9101 103.458 29.962C103.445 29.0236 103.604 28.0907 103.925 27.2091C104.204 26.4181 104.705 25.7244 105.369 25.2118C106.1 24.6859 106.987 24.4199 107.887 24.4562C108.489 24.4054 109.094 24.521 109.636 24.7904C110.178 25.0597 110.635 25.4725 110.958 25.9838C111.625 27.2 111.944 28.5764 111.881 29.962C111.943 31.3549 111.618 32.7376 110.941 33.9566C110.591 34.476 110.106 34.8908 109.539 35.1571C108.972 35.4233 108.343 35.5309 107.72 35.4686L107.719 35.4678Z" fill="#B4B4B4"/>
<path d="M126.721 39.5303C128.396 39.5659 130.048 39.1484 131.505 38.3221C132.877 37.5208 133.999 36.3524 134.744 34.9484C135.55 33.4122 135.954 31.6972 135.919 29.9629C135.954 28.2413 135.556 26.5384 134.761 25.011C134.02 23.5997 132.898 22.4248 131.522 21.6201C130.058 20.8189 128.417 20.3975 126.749 20.3945C125.08 20.3916 123.438 20.807 121.971 21.603C120.599 22.4045 119.477 23.5729 118.731 24.9767C117.923 26.512 117.519 28.2276 117.557 29.9622C117.523 31.6869 117.915 33.3933 118.698 34.9304C119.44 36.3312 120.555 37.4989 121.92 38.3042C123.379 39.1429 125.039 39.5669 126.721 39.5303ZM126.721 35.267C126.106 35.3055 125.491 35.196 124.928 34.9476C124.364 34.6993 123.868 34.3195 123.481 33.8399C122.702 32.7022 122.319 31.3394 122.391 29.9622C122.327 28.6088 122.692 27.2699 123.432 26.1351C123.813 25.6332 124.313 25.2347 124.888 24.9762C125.463 24.7176 126.093 24.6072 126.721 24.655C127.341 24.6134 127.962 24.7235 128.53 24.9758C129.098 25.2282 129.596 25.6151 129.98 26.1031C130.769 27.2308 131.159 28.5894 131.088 29.9637C131.146 31.3235 130.763 32.6657 129.998 33.7908C129.617 34.2894 129.118 34.6855 128.546 34.9432C127.974 35.2009 127.347 35.3122 126.721 35.267Z" fill="#B4B4B4"/>
<path d="M137.931 18.3812H142.497V14.3531H137.931V18.3812ZM137.931 39.0239H142.497V20.8988H137.931V39.0239Z" fill="#B4B4B4"/>
<path d="M145.482 47.0839H150.078V38.3718C150.689 38.7491 151.35 39.0376 152.042 39.2287C152.814 39.4359 153.61 39.5375 154.409 39.5309C155.963 39.5638 157.491 39.1249 158.79 38.2721C160.057 37.4163 161.066 36.2313 161.71 34.8446C162.433 33.3196 162.795 31.6482 162.767 29.9605C162.8 28.2598 162.432 26.5753 161.694 25.0428C161.034 23.6512 160 22.4713 158.706 21.6356C157.349 20.7881 155.774 20.3564 154.175 20.3939C153.297 20.384 152.423 20.5201 151.59 20.7966C150.837 21.043 150.133 21.4178 149.509 21.9043V20.8987H145.48L145.482 47.0839ZM153.673 35.4686C153.05 35.5287 152.422 35.4203 151.855 35.1546C151.287 34.8889 150.802 34.4757 150.45 33.9582C149.773 32.739 149.449 31.3563 149.511 29.9636C149.448 28.5779 149.767 27.2016 150.434 25.9854C150.759 25.4759 151.217 25.0645 151.758 24.7953C152.299 24.5262 152.903 24.4095 153.505 24.4578C154.4 24.4196 155.282 24.686 156.006 25.2134C156.678 25.7214 157.186 26.416 157.466 27.2107C157.788 28.0922 157.946 29.0252 157.933 29.9636C157.945 30.9116 157.791 31.8545 157.48 32.75C157.213 33.5289 156.73 34.216 156.087 34.7309C155.39 35.245 154.538 35.5053 153.673 35.4686Z" fill="#B4B4B4"/>
<path d="M171.042 39.5302C173.027 39.6464 174.992 39.0841 176.614 37.9356C177.274 37.4176 177.8 36.7501 178.15 35.9883C178.5 35.2265 178.664 34.3923 178.628 33.5547C178.66 32.9369 178.559 32.3195 178.333 31.7436C178.108 31.1676 177.762 30.6464 177.319 30.2144C176.038 29.1941 174.529 28.4975 172.921 28.1836C171.511 27.8253 170.459 27.5342 169.766 27.3104C169.274 27.1831 168.812 26.9608 168.406 26.6561C168.302 26.5532 168.22 26.4301 168.165 26.2944C168.11 26.1587 168.084 26.0132 168.088 25.867C168.084 25.6145 168.154 25.3663 168.287 25.1521C168.421 24.9379 168.613 24.7667 168.842 24.6588C169.474 24.3581 170.177 24.2417 170.873 24.3231C172.652 24.4576 173.625 25.2184 173.794 26.6054L178.46 25.7665C178.36 24.9798 178.093 24.2236 177.677 23.5489C177.26 22.8742 176.704 22.2967 176.045 21.8553C174.485 20.8281 172.641 20.3171 170.775 20.3947C168.899 20.2977 167.046 20.8422 165.521 21.9386C164.885 22.4257 164.376 23.0576 164.034 23.7818C163.692 24.5059 163.529 25.3013 163.557 26.1015C163.528 26.7161 163.634 27.3296 163.869 27.8983C164.105 28.467 164.462 28.9767 164.917 29.3911C166.308 30.4083 167.905 31.1077 169.595 31.4398C170.905 31.7867 171.867 32.0663 172.482 32.2787C172.934 32.3905 173.35 32.6157 173.69 32.933C173.88 33.177 173.975 33.4813 173.959 33.7899C173.968 34.0521 173.911 34.3123 173.794 34.5469C173.677 34.7815 173.503 34.983 173.287 35.1329C172.712 35.4793 172.044 35.6423 171.373 35.6002C170.484 35.6354 169.607 35.3821 168.873 34.8781C168.22 34.3916 167.771 33.6798 167.613 32.8809L162.947 33.5819C163.056 34.4486 163.338 35.2846 163.777 36.0401C164.215 36.7957 164.801 37.4554 165.499 37.98C167.133 39.0781 169.076 39.6215 171.042 39.5302Z" fill="#B4B4B4"/>
<path d="M187.05 39.5644C188.225 39.5912 189.394 39.3682 190.477 38.9101C191.406 38.505 192.241 37.9104 192.928 37.1644V39.0277H196.956V20.8995H192.36V30.0976C192.388 31.0198 192.257 31.9399 191.97 32.817C191.782 33.4059 191.454 33.9405 191.015 34.3749C190.655 34.7041 190.224 34.9455 189.755 35.0799C189.346 35.1975 188.923 35.2596 188.497 35.2645C187.689 35.3147 186.888 35.0835 186.231 34.6102C185.71 34.1811 185.315 33.6183 185.089 32.9821C184.86 32.3613 184.719 31.7116 184.67 31.0518C184.625 30.4027 184.603 29.8712 184.603 29.4573V20.8995H179.969V31.0713C179.969 31.3735 179.992 31.8547 180.036 32.5147C180.097 33.2584 180.227 33.9946 180.426 34.7138C180.65 35.5333 181.007 36.3103 181.484 37.0133C182.024 37.7845 182.745 38.4126 183.582 38.8431C184.662 39.364 185.852 39.6117 187.05 39.5644Z" fill="#B4B4B4"/>
<path d="M199.597 39.0261H204.193V28.0489C204.152 27.1266 204.458 26.2223 205.05 25.5141C205.336 25.1885 205.691 24.9308 206.089 24.7595C206.487 24.5882 206.918 24.5078 207.35 24.524C207.791 24.5016 208.23 24.5807 208.635 24.7554C209.039 24.93 209.398 25.1955 209.683 25.5312C210.298 26.3252 210.603 27.3156 210.54 28.3176V39.0261H215.106V28.0489C215.065 27.1266 215.371 26.2223 215.963 25.5141C216.248 25.1887 216.603 24.931 217 24.7598C217.398 24.5885 217.829 24.508 218.262 24.524C218.702 24.5014 219.141 24.5805 219.546 24.7552C219.95 24.9299 220.309 25.1954 220.595 25.5312C221.21 26.3249 221.514 27.3155 221.451 28.3176V39.0261H226.016V27.1079C226.097 25.3654 225.529 23.6547 224.422 22.307C223.829 21.6683 223.101 21.1708 222.29 20.8513C221.479 20.5317 220.608 20.3983 219.738 20.4609C218.624 20.4494 217.524 20.7087 216.532 21.2165C215.589 21.6929 214.785 22.4044 214.197 23.2823C213.725 22.4291 213.028 21.7209 212.183 21.2344C211.187 20.6892 210.062 20.4225 208.927 20.4624C207.884 20.4507 206.851 20.6743 205.905 21.1168C205.018 21.5185 204.236 22.1219 203.622 22.8788V20.8987H199.594L199.597 39.0261Z" fill="#B4B4B4"/>
<path d="M26.4908 0.780884C19.4952 0.780884 12.7862 3.55986 7.8396 8.50647C2.89299 13.4531 0.114014 20.1621 0.114014 27.1577C7.10957 27.1577 13.8186 24.3787 18.7652 19.4321C23.7118 14.4855 26.4908 7.77644 26.4908 0.780884Z" fill="#B4B4B4"/>
<path d="M26.4907 53.5346C33.4863 53.5346 40.1953 50.7557 45.1419 45.809C50.0885 40.8624 52.8675 34.1534 52.8675 27.1578C45.872 27.1578 39.1629 29.9368 34.2163 34.8834C29.2697 39.83 26.4907 46.5391 26.4907 53.5346Z" fill="#B4B4B4"/>
<path d="M26.4907 0.781006C33.4863 0.781006 40.1953 3.55998 45.1419 8.50659C50.0885 13.4532 52.8675 20.1622 52.8675 27.1578C45.872 27.1578 39.1629 24.3788 34.2163 19.4322C29.2697 14.4856 26.4907 7.77657 26.4907 0.781006Z" fill="#B4B4B4"/>
<path d="M26.4908 53.5346C19.4952 53.5346 12.7862 50.7557 7.8396 45.809C2.89299 40.8624 0.114014 34.1534 0.114014 27.1578C7.10957 27.1578 13.8186 29.9368 18.7652 34.8834C23.7118 39.83 26.4908 46.5391 26.4908 53.5346Z" fill="#B4B4B4"/>
</svg>
