<svg width="15" height="14" viewBox="0 0 15 14" fill="none" xmlns="http://www.w3.org/2000/svg">
<g id="area">
<path id="Vector" d="M1.73108 9.59648V1.6447L1.1922 2.18057C1.11353 2.25612 1.00818 2.29793 0.898817 2.29698C0.789457 2.29604 0.684846 2.25242 0.607514 2.17552C0.530182 2.09862 0.486318 1.99459 0.485367 1.88584C0.484417 1.77709 0.526457 1.67232 0.602433 1.5941L1.8537 0.349818C1.89245 0.311193 1.93847 0.280548 1.98914 0.259638C2.03982 0.238729 2.09414 0.227966 2.149 0.227966C2.20386 0.227966 2.25818 0.238729 2.30886 0.259638C2.35953 0.280548 2.40556 0.311193 2.4443 0.349818L3.69557 1.5941C3.77154 1.67232 3.81358 1.77709 3.81263 1.88584C3.81168 1.99459 3.76782 2.09862 3.69049 2.17552C3.61315 2.25242 3.50854 2.29604 3.39918 2.29698C3.28982 2.29793 3.18447 2.25612 3.1058 2.18057L2.56609 1.6447V9.59648L3.1058 9.05978C3.18447 8.98423 3.28982 8.94242 3.39918 8.94337C3.50854 8.94431 3.61315 8.98794 3.69049 9.06483C3.76782 9.14174 3.81168 9.24576 3.81263 9.35451C3.81358 9.46326 3.77154 9.56803 3.69557 9.64625L2.4443 10.8905C2.40556 10.9292 2.35953 10.9598 2.30886 10.9807C2.25818 11.0016 2.20386 11.0124 2.149 11.0124C2.09414 11.0124 2.03982 11.0016 1.98914 10.9807C1.93847 10.9598 1.89245 10.9292 1.8537 10.8905L0.602433 9.64625C0.526457 9.56803 0.484417 9.46326 0.485367 9.35451C0.486318 9.24576 0.530182 9.14174 0.607514 9.06483C0.684846 8.98794 0.789457 8.94431 0.898817 8.94337C1.00818 8.94242 1.11353 8.98423 1.1922 9.05978L1.73108 9.59648ZM14.1211 11.9631L12.8699 10.7188C12.7912 10.6433 12.6858 10.6015 12.5765 10.6024C12.4671 10.6034 12.3625 10.647 12.2852 10.7239C12.2078 10.8008 12.164 10.9048 12.163 11.0136C12.1621 11.1223 12.2041 11.2271 12.2801 11.3053L12.819 11.842H4.82338L5.36309 11.3053C5.43907 11.2271 5.48111 11.1223 5.48016 11.0136C5.47921 10.9048 5.43534 10.8008 5.35801 10.7239C5.28068 10.647 5.17607 10.6034 5.06671 10.6024C4.95735 10.6015 4.85199 10.6433 4.77333 10.7188L3.52206 11.9631C3.48322 12.0016 3.4524 12.0474 3.43137 12.0978C3.41035 12.1482 3.39952 12.2022 3.39952 12.2568C3.39952 12.3113 3.41035 12.3653 3.43137 12.4157C3.4524 12.4661 3.48322 12.5119 3.52206 12.5504L4.77333 13.7947C4.85199 13.8702 4.95735 13.912 5.06671 13.9111C5.17607 13.9102 5.28068 13.8665 5.35801 13.7896C5.43534 13.7127 5.47921 13.6087 5.48016 13.5C5.48111 13.3912 5.43907 13.2864 5.36309 13.2082L4.82338 12.6723H12.8198L12.2809 13.2082C12.205 13.2864 12.1629 13.3912 12.1639 13.5C12.1648 13.6087 12.2087 13.7127 12.286 13.7896C12.3633 13.8665 12.468 13.9102 12.5773 13.9111C12.6867 13.912 12.792 13.8702 12.8707 13.7947L14.122 12.5504C14.1608 12.5118 14.1915 12.466 14.2125 12.4156C14.2334 12.3652 14.2442 12.3111 14.2441 12.2566C14.244 12.202 14.2331 12.148 14.212 12.0977C14.1909 12.0473 14.16 12.0016 14.1211 11.9631ZM13.8267 2.71727C13.716 2.71727 13.61 2.76097 13.5317 2.83875C13.4535 2.91653 13.4096 3.02203 13.4096 3.13203V3.96155C13.4096 4.07155 13.4535 4.17705 13.5317 4.25483C13.61 4.33261 13.716 4.37631 13.8267 4.37631C13.9373 4.37631 14.0434 4.33261 14.1216 4.25483C14.1998 4.17705 14.2438 4.07155 14.2438 3.96155V3.13203C14.2438 3.02203 14.1998 2.91653 14.1216 2.83875C14.0434 2.76097 13.9373 2.71727 13.8267 2.71727ZM13.8267 5.20583C13.716 5.20583 13.61 5.24953 13.5317 5.32731C13.4535 5.40509 13.4096 5.51059 13.4096 5.62059V6.45011C13.4096 6.56011 13.4535 6.66561 13.5317 6.74339C13.61 6.82117 13.716 6.86487 13.8267 6.86487C13.9373 6.86487 14.0434 6.82117 14.1216 6.74339C14.1998 6.66561 14.2438 6.56011 14.2438 6.45011V5.62059C14.2438 5.51059 14.1998 5.40509 14.1216 5.32731C14.0434 5.24953 13.9373 5.20583 13.8267 5.20583ZM5.48488 4.37631C5.5955 4.37631 5.70159 4.33261 5.77981 4.25483C5.85803 4.17705 5.90197 4.07155 5.90197 3.96155V3.13203C5.90197 3.02203 5.85803 2.91653 5.77981 2.83875C5.70159 2.76097 5.5955 2.71727 5.48488 2.71727C5.37426 2.71727 5.26817 2.76097 5.18995 2.83875C5.11173 2.91653 5.06779 3.02203 5.06779 3.13203V3.96155C5.06779 4.07155 5.11173 4.17705 5.18995 4.25483C5.26817 4.33261 5.37426 4.37631 5.48488 4.37631ZM5.48488 6.86487C5.5955 6.86487 5.70159 6.82117 5.77981 6.74339C5.85803 6.66561 5.90197 6.56011 5.90197 6.45011V5.62059C5.90197 5.51059 5.85803 5.40509 5.77981 5.32731C5.70159 5.24953 5.5955 5.20583 5.48488 5.20583C5.37426 5.20583 5.26817 5.24953 5.18995 5.32731C5.11173 5.40509 5.06779 5.51059 5.06779 5.62059V6.45011C5.06779 6.56011 5.11173 6.66561 5.18995 6.74339C5.26817 6.82117 5.37426 6.86487 5.48488 6.86487ZM10.49 1.05823H11.3241C11.4347 1.05823 11.5408 1.01453 11.6191 0.936748C11.6973 0.858965 11.7412 0.753469 11.7412 0.643468C11.7412 0.533467 11.6973 0.427971 11.6191 0.350188C11.5408 0.272405 11.4347 0.228708 11.3241 0.228708H10.49C10.3793 0.228708 10.2732 0.272405 10.195 0.350188C10.1168 0.427971 10.0729 0.533467 10.0729 0.643468C10.0729 0.753469 10.1168 0.858965 10.195 0.936748C10.2732 1.01453 10.3793 1.05823 10.49 1.05823ZM7.98742 1.05823H8.82159C8.93221 1.05823 9.0383 1.01453 9.11652 0.936748C9.19474 0.858965 9.23868 0.753469 9.23868 0.643468C9.23868 0.533467 9.19474 0.427971 9.11652 0.350188C9.0383 0.272405 8.93221 0.228708 8.82159 0.228708H7.98742C7.8768 0.228708 7.77071 0.272405 7.69249 0.350188C7.61427 0.427971 7.57033 0.533467 7.57033 0.643468C7.57033 0.753469 7.61427 0.858965 7.69249 0.936748C7.77071 1.01453 7.8768 1.05823 7.98742 1.05823ZM10.49 9.35343H11.3241C11.4347 9.35343 11.5408 9.30974 11.6191 9.23195C11.6973 9.15417 11.7412 9.04867 11.7412 8.93867C11.7412 8.82867 11.6973 8.72318 11.6191 8.64539C11.5408 8.56761 11.4347 8.52391 11.3241 8.52391H10.49C10.3793 8.52391 10.2732 8.56761 10.195 8.64539C10.1168 8.72318 10.0729 8.82867 10.0729 8.93867C10.0729 9.04867 10.1168 9.15417 10.195 9.23195C10.2732 9.30974 10.3793 9.35343 10.49 9.35343ZM7.98742 9.35343H8.82159C8.93221 9.35343 9.0383 9.30974 9.11652 9.23195C9.19474 9.15417 9.23868 9.04867 9.23868 8.93867C9.23868 8.82867 9.19474 8.72318 9.11652 8.64539C9.0383 8.56761 8.93221 8.52391 8.82159 8.52391H7.98742C7.8768 8.52391 7.77071 8.56761 7.69249 8.64539C7.61427 8.72318 7.57033 8.82867 7.57033 8.93867C7.57033 9.04867 7.61427 9.15417 7.69249 9.23195C7.77071 9.30974 7.8768 9.35343 7.98742 9.35343ZM12.9925 0.228708C12.8819 0.228708 12.7758 0.272405 12.6976 0.350188C12.6193 0.427971 12.5754 0.533467 12.5754 0.643468C12.5754 0.753469 12.6193 0.858965 12.6976 0.936748C12.7758 1.01453 12.8819 1.05823 12.9925 1.05823C13.1031 1.05823 13.2092 1.10193 13.2874 1.17971C13.3656 1.25749 13.4096 1.36299 13.4096 1.47299C13.4096 1.58299 13.4535 1.68849 13.5317 1.76627C13.61 1.84405 13.716 1.88775 13.8267 1.88775C13.9373 1.88775 14.0434 1.84405 14.1216 1.76627C14.1998 1.68849 14.2438 1.58299 14.2438 1.47299C14.2438 1.14298 14.1119 0.826497 13.8773 0.593149C13.6426 0.359801 13.3243 0.228708 12.9925 0.228708ZM6.31906 9.35343C6.42968 9.35343 6.53577 9.30974 6.61398 9.23195C6.6922 9.15417 6.73615 9.04867 6.73615 8.93867C6.73615 8.82867 6.6922 8.72318 6.61398 8.64539C6.53577 8.56761 6.42968 8.52391 6.31906 8.52391C6.20844 8.52391 6.10235 8.48022 6.02413 8.40243C5.94591 8.32465 5.90197 8.21915 5.90197 8.10915C5.90197 7.99915 5.85803 7.89366 5.77981 7.81587C5.70159 7.73809 5.5955 7.69439 5.48488 7.69439C5.37426 7.69439 5.26817 7.73809 5.18995 7.81587C5.11173 7.89366 5.06779 7.99915 5.06779 8.10915C5.06779 8.43916 5.19962 8.75564 5.43428 8.98899C5.66894 9.22234 5.9872 9.35343 6.31906 9.35343ZM13.8267 7.69439C13.716 7.69439 13.61 7.73809 13.5317 7.81587C13.4535 7.89366 13.4096 7.99915 13.4096 8.10915C13.4096 8.21915 13.3656 8.32465 13.2874 8.40243C13.2092 8.48022 13.1031 8.52391 12.9925 8.52391C12.8819 8.52391 12.7758 8.56761 12.6976 8.64539C12.6193 8.72318 12.5754 8.82867 12.5754 8.93867C12.5754 9.04867 12.6193 9.15417 12.6976 9.23195C12.7758 9.30974 12.8819 9.35343 12.9925 9.35343C13.3243 9.35343 13.6426 9.22234 13.8773 8.98899C14.1119 8.75564 14.2438 8.43916 14.2438 8.10915C14.2438 7.99915 14.1998 7.89366 14.1216 7.81587C14.0434 7.73809 13.9373 7.69439 13.8267 7.69439ZM5.48488 1.88775C5.5955 1.88775 5.70159 1.84405 5.77981 1.76627C5.85803 1.68849 5.90197 1.58299 5.90197 1.47299C5.90197 1.36299 5.94591 1.25749 6.02413 1.17971C6.10235 1.10193 6.20844 1.05823 6.31906 1.05823C6.42968 1.05823 6.53577 1.01453 6.61398 0.936748C6.6922 0.858965 6.73615 0.753469 6.73615 0.643468C6.73615 0.533467 6.6922 0.427971 6.61398 0.350188C6.53577 0.272405 6.42968 0.228708 6.31906 0.228708C5.9872 0.228708 5.66894 0.359801 5.43428 0.593149C5.19962 0.826497 5.06779 1.14298 5.06779 1.47299C5.06779 1.58299 5.11173 1.68849 5.18995 1.76627C5.26817 1.84405 5.37426 1.88775 5.48488 1.88775Z" fill="#414143"/>
</g>
</svg>
