<svg width="12" height="14" viewBox="0 0 12 14" fill="none" xmlns="http://www.w3.org/2000/svg">
<g id="bathroom">
<g id="07-shower">
<path id="Vector" d="M8.1641 0.227905C7.23984 0.229099 6.35049 0.579139 5.67577 1.20729C5.00105 1.83544 4.59127 2.69487 4.52924 3.6119C3.68971 3.73179 2.91167 4.11843 2.31125 4.71411C1.71083 5.3098 1.32022 6.08259 1.19771 6.91716H0.596436V8.03203H9.56552V6.91716H8.96424C8.84228 6.086 8.4544 5.31598 7.85805 4.72113C7.26169 4.12627 6.48856 3.73819 5.65311 3.61434C5.71506 2.97305 6.02276 2.38004 6.51244 1.95822C7.00211 1.53639 7.63623 1.31809 8.28337 1.34855C8.9305 1.37901 9.54105 1.65589 9.98847 2.12182C10.4359 2.58775 10.6859 3.20701 10.6867 3.85125V13.6064H11.8078V3.85125C11.8067 2.89061 11.4225 1.96963 10.7394 1.29036C10.0563 0.611087 9.13013 0.228993 8.1641 0.227905ZM7.82776 6.91716H2.3342C2.4632 6.28738 2.80709 5.72128 3.30764 5.31469C3.8082 4.90811 4.43466 4.68601 5.08098 4.68601C5.7273 4.68601 6.35376 4.90811 6.85432 5.31469C7.35487 5.72128 7.69876 6.28738 7.82776 6.91716Z" fill="#414143"/>
<path id="Vector_2" d="M5.08108 13.049C5.39067 13.049 5.64164 12.7994 5.64164 12.4916C5.64164 12.1837 5.39067 11.9341 5.08108 11.9341C4.77148 11.9341 4.52051 12.1837 4.52051 12.4916C4.52051 12.7994 4.77148 13.049 5.08108 13.049Z" fill="#414143"/>
<path id="Vector_3" d="M5.08108 11.3767C5.39067 11.3767 5.64164 11.1271 5.64164 10.8193C5.64164 10.5114 5.39067 10.2618 5.08108 10.2618C4.77148 10.2618 4.52051 10.5114 4.52051 10.8193C4.52051 11.1271 4.77148 11.3767 5.08108 11.3767Z" fill="#414143"/>
<path id="Vector_4" d="M7.32326 13.049C7.63286 13.049 7.88383 12.7994 7.88383 12.4916C7.88383 12.1837 7.63286 11.9341 7.32326 11.9341C7.01367 11.9341 6.7627 12.1837 6.7627 12.4916C6.7627 12.7994 7.01367 13.049 7.32326 13.049Z" fill="#414143"/>
<path id="Vector_5" d="M7.32326 11.3767C7.63286 11.3767 7.88383 11.1271 7.88383 10.8193C7.88383 10.5114 7.63286 10.2618 7.32326 10.2618C7.01367 10.2618 6.7627 10.5114 6.7627 10.8193C6.7627 11.1271 7.01367 11.3767 7.32326 11.3767Z" fill="#414143"/>
<path id="Vector_6" d="M2.83864 13.049C3.14824 13.049 3.39921 12.7994 3.39921 12.4916C3.39921 12.1837 3.14824 11.9341 2.83864 11.9341C2.52905 11.9341 2.27808 12.1837 2.27808 12.4916C2.27808 12.7994 2.52905 13.049 2.83864 13.049Z" fill="#414143"/>
<path id="Vector_7" d="M2.83864 11.3767C3.14824 11.3767 3.39921 11.1271 3.39921 10.8193C3.39921 10.5114 3.14824 10.2618 2.83864 10.2618C2.52905 10.2618 2.27808 10.5114 2.27808 10.8193C2.27808 11.1271 2.52905 11.3767 2.83864 11.3767Z" fill="#414143"/>
<path id="Vector_8" d="M5.08108 9.70441C5.39067 9.70441 5.64164 9.45484 5.64164 9.14698C5.64164 8.83911 5.39067 8.58954 5.08108 8.58954C4.77148 8.58954 4.52051 8.83911 4.52051 9.14698C4.52051 9.45484 4.77148 9.70441 5.08108 9.70441Z" fill="#414143"/>
<path id="Vector_9" d="M7.32326 9.70441C7.63286 9.70441 7.88383 9.45484 7.88383 9.14698C7.88383 8.83911 7.63286 8.58954 7.32326 8.58954C7.01367 8.58954 6.7627 8.83911 6.7627 9.14698C6.7627 9.45484 7.01367 9.70441 7.32326 9.70441Z" fill="#414143"/>
<path id="Vector_10" d="M2.83864 9.70441C3.14824 9.70441 3.39921 9.45484 3.39921 9.14698C3.39921 8.83911 3.14824 8.58954 2.83864 8.58954C2.52905 8.58954 2.27808 8.83911 2.27808 9.14698C2.27808 9.45484 2.52905 9.70441 2.83864 9.70441Z" fill="#414143"/>
</g>
</g>
</svg>
