<svg width="40" height="40" viewBox="0 0 40 40" fill="none" xmlns="http://www.w3.org/2000/svg">
<path d="M32.1159 0H7.67988C3.4384 0 0 3.4384 0 7.67988V32.1159C0 36.3573 3.4384 39.7957 7.67988 39.7957H32.1159C36.3573 39.7957 39.7957 36.3573 39.7957 32.1159V7.67988C39.7957 3.4384 36.3573 0 32.1159 0Z" fill="#CB9C62"/>
<path d="M13.7699 12.567C13.5286 12.5436 13.2851 12.5706 13.0548 12.6463C12.8246 12.7219 12.6125 12.8445 12.432 13.0063C12.2515 13.1681 12.1066 13.3656 12.0063 13.5863C11.9061 13.807 11.8528 14.0461 11.8497 14.2885C11.8467 14.5309 11.894 14.7712 11.9886 14.9944C12.0832 15.2175 12.2231 15.4186 12.3995 15.5849C12.5758 15.7512 12.7848 15.8791 13.0131 15.9605C13.2414 16.0419 13.4841 16.0751 13.7259 16.0578H13.7476C13.9897 16.081 14.2341 16.0535 14.465 15.9771C14.696 15.9007 14.9085 15.777 15.089 15.614C15.2696 15.451 15.4142 15.2521 15.5137 15.0301C15.6132 14.8081 15.6654 14.5679 15.667 14.3246C15.6685 14.0813 15.6194 13.8404 15.5228 13.6172C15.4261 13.3939 15.284 13.1932 15.1056 13.0279C14.9271 12.8626 14.7162 12.7362 14.4863 12.6569C14.2563 12.5775 14.0123 12.5469 13.7699 12.567Z" fill="white"/>
<path d="M12.0669 17.2643H15.4272V27.3745H12.0669V17.2643Z" fill="white"/>
<path d="M23.4913 17.0269C21.676 17.0269 20.4626 18.7304 20.4626 18.7304V17.2642H17.1023V27.3744H20.4626V21.7283C20.4498 21.4504 20.4874 21.1725 20.5736 20.908C20.6994 20.5506 20.9325 20.2408 21.241 20.0208C21.5496 19.8009 21.9185 19.6816 22.2974 19.6792C23.5136 19.6792 23.9995 20.6064 23.9995 21.9657V27.3744H27.3598V21.5796C27.3598 18.4742 25.7017 17.029 23.4913 17.029V17.0269Z" fill="white"/>
</svg>
