<svg width="41" height="40" viewBox="0 0 41 40" fill="none" xmlns="http://www.w3.org/2000/svg">
<path d="M32.8749 -0.00012207H8.43891C4.19743 -0.00012207 0.759033 3.43828 0.759033 7.67976V32.1157C0.759033 36.3572 4.19743 39.7956 8.43891 39.7956H32.8749C37.1164 39.7956 40.5548 36.3572 40.5548 32.1157V7.67976C40.5548 3.43828 37.1164 -0.00012207 32.8749 -0.00012207Z" fill="#CB9C62"/>
<path d="M29.7631 16.4278C29.7476 15.6862 29.6059 14.9526 29.3442 14.2585C29.1143 13.6648 28.7632 13.1255 28.3132 12.6751C27.8633 12.2247 27.3244 11.873 26.7309 11.6425C26.0368 11.3811 25.3033 11.2394 24.5617 11.2236C23.6038 11.181 23.3001 11.1705 20.8726 11.1705C18.445 11.1705 18.1406 11.181 17.1869 11.2229C16.4453 11.2384 15.7118 11.3801 15.0177 11.6418C14.4199 11.8654 13.8784 12.2174 13.4315 12.673C12.9776 13.1196 12.626 13.6594 12.401 14.2551C12.1395 14.9492 11.9979 15.6827 11.9821 16.4243C11.9402 17.3843 11.9297 17.6859 11.9297 20.1134C11.9297 22.5409 11.9402 22.8453 11.9821 23.799C11.9975 24.5407 12.1392 25.2742 12.401 25.9683C12.6311 26.5625 12.9827 27.1021 13.4333 27.5527C13.8838 28.0033 14.4235 28.3549 15.0177 28.585C15.7118 28.8464 16.4453 28.9881 17.1869 29.0039C18.1406 29.0458 18.4436 29.0563 20.8726 29.0563C23.3015 29.0563 23.6045 29.0458 24.5582 29.0039C25.2998 28.9884 26.0334 28.8468 26.7274 28.585C27.3207 28.3551 27.8595 28.0039 28.3094 27.554C28.7592 27.104 29.1102 26.5651 29.34 25.9718C29.6013 25.2776 29.743 24.5441 29.7589 23.8025C29.8008 22.8488 29.8112 22.5458 29.8112 20.1169C29.8112 17.688 29.805 17.3843 29.7631 16.4278ZM28.1524 23.7292C28.1467 24.296 28.0428 24.8575 27.8452 25.3888C27.6964 25.7749 27.4685 26.1256 27.176 26.4184C26.8836 26.7112 26.5332 26.9396 26.1472 27.0888C25.6159 27.2861 25.0544 27.39 24.4877 27.396C23.5445 27.4379 23.2617 27.4484 20.8754 27.4484C18.489 27.4484 18.2028 27.4379 17.263 27.396C16.6962 27.3904 16.1347 27.2865 15.6035 27.0888C15.2153 26.9463 14.8643 26.7182 14.5765 26.4214C14.2804 26.1329 14.0524 25.7821 13.909 25.3944C13.7118 24.863 13.6078 24.3016 13.6018 23.7348C13.5599 22.7916 13.5494 22.5088 13.5494 20.1225C13.5494 17.7361 13.5599 17.4499 13.6018 16.5101C13.6074 15.9434 13.7114 15.3818 13.909 14.8506C14.0517 14.4615 14.2814 14.1102 14.5806 13.8236C14.869 13.5274 15.2199 13.2994 15.6077 13.1561C16.1389 12.958 16.7003 12.8531 17.2672 12.8461C18.2104 12.8043 18.4932 12.7938 20.8795 12.7938C23.2659 12.7938 23.5521 12.8043 24.4919 12.8461C25.0587 12.8518 25.6202 12.9557 26.1514 13.1533C26.5396 13.2958 26.8906 13.5239 27.1784 13.8208C27.4745 14.1092 27.7025 14.4601 27.8459 14.8478C28.0431 15.3792 28.147 15.9406 28.1531 16.5074C28.195 17.4506 28.2055 17.7333 28.2055 20.1197C28.2055 22.506 28.195 22.7853 28.1531 23.7285L28.1524 23.7292Z" fill="white"/>
<path d="M20.8724 15.3429C19.9291 15.3429 19.0068 15.6226 18.2224 16.1468C17.438 16.6709 16.8267 17.4159 16.4656 18.2874C16.1046 19.159 16.0101 20.1181 16.1942 21.0434C16.3782 21.9686 16.8325 22.8185 17.4996 23.4856C18.1667 24.1527 19.0166 24.607 19.9419 24.7911C20.8671 24.9751 21.8262 24.8806 22.6978 24.5196C23.5694 24.1586 24.3143 23.5472 24.8385 22.7628C25.3626 21.9784 25.6424 21.0562 25.6424 20.1128C25.642 18.8479 25.1393 17.6348 24.2449 16.7404C23.3504 15.8459 22.1374 15.3433 20.8724 15.3429ZM20.8724 23.2071C20.2605 23.2071 19.6622 23.0256 19.1533 22.6856C18.6445 22.3456 18.2479 21.8623 18.0137 21.2969C17.7795 20.7315 17.7182 20.1094 17.8376 19.5091C17.957 18.9089 18.2517 18.3575 18.6845 17.9248C19.1172 17.4921 19.6685 17.1974 20.2688 17.078C20.869 16.9586 21.4912 17.0198 22.0566 17.254C22.622 17.4882 23.1053 17.8848 23.4453 18.3937C23.7853 18.9026 23.9667 19.5008 23.9667 20.1128C23.9667 20.9335 23.6407 21.7205 23.0604 22.3008C22.4802 22.8811 21.6931 23.2071 20.8724 23.2071Z" fill="white"/>
<path d="M26.7049 15.3121C26.7049 15.5156 26.6446 15.7146 26.5315 15.8838C26.4184 16.053 26.2577 16.1849 26.0697 16.2628C25.8816 16.3407 25.6747 16.3611 25.4751 16.3214C25.2754 16.2817 25.0921 16.1837 24.9482 16.0398C24.8042 15.8958 24.7062 15.7125 24.6665 15.5128C24.6268 15.3132 24.6472 15.1063 24.7251 14.9182C24.803 14.7302 24.9349 14.5695 25.1041 14.4564C25.2733 14.3433 25.4723 14.283 25.6758 14.283C25.9488 14.283 26.2105 14.3914 26.4035 14.5844C26.5965 14.7774 26.7049 15.0391 26.7049 15.3121Z" fill="white"/>
</svg>
