<svg width="41" height="40" viewBox="0 0 41 40" fill="none" xmlns="http://www.w3.org/2000/svg">
<path d="M32.3932 -0.00012207H7.95722C3.71574 -0.00012207 0.277344 3.43828 0.277344 7.67976V32.1157C0.277344 36.3572 3.71574 39.7956 7.95722 39.7956H32.3932C36.6347 39.7956 40.0731 36.3572 40.0731 32.1157V7.67976C40.0731 3.43828 36.6347 -0.00012207 32.3932 -0.00012207Z" fill="#CB9C62"/>
<path d="M23.0971 13.0882H24.9193V9.91362C24.0383 9.81714 23.1525 9.77052 22.2663 9.77398C19.6391 9.77398 17.8399 11.4266 17.8399 14.4636V17.2563H14.939V20.8051H17.8378V29.7326H21.3922V20.8051H24.1737L24.6149 17.2577H21.3915V14.8141C21.3922 13.7899 21.6679 13.0882 23.0971 13.0882Z" fill="white"/>
</svg>
