<svg width="41" height="40" viewBox="0 0 41 40" fill="none" xmlns="http://www.w3.org/2000/svg">
<path d="M32.6342 -0.00012207H8.19819C3.95671 -0.00012207 0.518311 3.43828 0.518311 7.67976V32.1157C0.518311 36.3572 3.95671 39.7956 8.19819 39.7956H32.6342C36.8757 39.7956 40.3141 36.3572 40.3141 32.1157V7.67976C40.3141 3.43828 36.8757 -0.00012207 32.6342 -0.00012207Z" fill="#CB9C62"/>
<path d="M29.9875 13.6959C29.2729 14.0076 28.5172 14.2148 27.7436 14.311C28.5589 13.8274 29.1685 13.0616 29.4569 12.1586C28.6935 12.6112 27.8583 12.93 26.9875 13.1011C26.4535 12.531 25.7604 12.1347 24.9982 11.9636C24.2361 11.7925 23.4401 11.8545 22.7136 12.1417C21.9872 12.4288 21.3639 12.9278 20.9247 13.5737C20.4855 14.2197 20.2507 14.9828 20.2508 15.7639C20.2477 16.0624 20.2779 16.3602 20.3409 16.652C18.7913 16.5762 17.2751 16.1742 15.8915 15.4722C14.508 14.7701 13.2882 13.784 12.3119 12.5782C11.8108 13.4349 11.6556 14.4506 11.878 15.4179C12.1004 16.3852 12.6836 17.2312 13.5086 17.783C12.8921 17.7665 12.2887 17.602 11.7492 17.3034V17.346C11.7498 18.2454 12.0604 19.1171 12.6288 19.8142C13.1971 20.5112 13.9884 20.991 14.8693 21.1727C14.5363 21.2605 14.193 21.3037 13.8486 21.3011C13.601 21.3044 13.3538 21.281 13.1113 21.2313C13.3626 22.005 13.8476 22.6817 14.4996 23.1681C15.1516 23.6545 15.9384 23.9267 16.7516 23.9472C15.3731 25.0252 13.673 25.61 11.923 25.6081C11.6115 25.6097 11.3002 25.5913 10.991 25.553C12.7719 26.6998 14.847 27.3061 16.9652 27.2984C18.423 27.3085 19.8684 27.0289 21.2173 26.4759C22.5662 25.9229 23.7918 25.1075 24.823 24.0769C25.8541 23.0464 26.6704 21.8213 27.2242 20.4727C27.7781 19.1242 28.0586 17.6791 28.0494 16.2212C28.0494 16.0488 28.0438 15.8826 28.0354 15.7178C28.8036 15.1682 29.4651 14.483 29.9875 13.6959Z" fill="white"/>
</svg>
