<svg width="227" height="55" viewBox="0 0 227 55" fill="none" xmlns="http://www.w3.org/2000/svg">
<path d="M68.562 38.2098H84.5691V33.3879H74.2516V15.2277H68.5651L68.562 38.2098Z" fill="#B4B4B4"/>
<path d="M94.0007 34.9817C91.7183 34.9817 90.5296 32.9891 90.5296 29.9963C90.5296 27.0035 91.7191 24.982 94.0007 24.982C96.2823 24.982 97.5061 27.0074 97.5061 29.9963C97.5061 32.9852 96.2831 34.9817 94.0007 34.9817ZM94.0327 38.7099C99.3359 38.7099 102.808 34.949 102.808 29.9994C102.808 25.0498 99.3359 21.2889 94.0327 21.2889C88.7613 21.2889 85.2256 25.0498 85.2256 29.9994C85.2256 34.949 88.7613 38.7099 94.0327 38.7099Z" fill="#B4B4B4"/>
<path d="M111.933 43.8705C114.376 43.8705 116.529 43.3252 117.976 42.0383C118.712 41.3385 119.289 40.4879 119.666 39.5448C120.043 38.6017 120.212 37.5883 120.162 36.5738V21.7243H115.148V23.4918H115.083C114.567 22.753 113.871 22.1585 113.061 21.7647C112.251 21.3709 111.354 21.191 110.454 21.2421C106.372 21.2421 103.544 24.6493 103.544 29.4704C103.544 34.5166 106.983 37.2811 110.679 37.2811C111.479 37.3071 112.274 37.1497 113.004 36.8211C113.734 36.4924 114.379 36.0013 114.89 35.3851H115.018V37.0209C115.018 39.0136 114.083 40.1711 111.868 40.1711C110.133 40.1711 109.265 39.4319 108.975 38.5641H103.898C104.413 42.0064 107.401 43.8705 111.933 43.8705ZM111.902 33.3917C109.941 33.3917 108.655 31.7847 108.655 29.3099C108.655 26.8032 109.94 25.1954 111.902 25.1954C114.087 25.1954 115.244 27.0594 115.244 29.2772C115.244 31.5923 114.184 33.3917 111.902 33.3917Z" fill="#B4B4B4"/>
<path d="M130.417 34.9817C128.135 34.9817 126.946 32.9891 126.946 29.9963C126.946 27.0035 128.135 24.982 130.417 24.982C132.699 24.982 133.922 27.0074 133.922 29.9963C133.922 32.9852 132.699 34.9817 130.417 34.9817ZM130.449 38.7099C135.752 38.7099 139.224 34.949 139.224 29.9994C139.224 25.0498 135.753 21.2889 130.449 21.2889C125.178 21.2889 121.642 25.0498 121.642 29.9994C121.642 34.949 125.178 38.7099 130.449 38.7099Z" fill="#B4B4B4"/>
<path d="M140.719 38.2098H145.958V21.7524H140.719V38.2098ZM140.719 19.4708H145.958V15.2277H140.719V19.4708Z" fill="#B4B4B4"/>
<path d="M148.187 43.6142H153.426V36.4789H153.491C154.026 37.2031 154.731 37.7843 155.544 38.1711C156.357 38.558 157.252 38.7384 158.152 38.6966C162.459 38.6966 165.318 35.2894 165.318 29.9542C165.318 25.0046 162.65 21.2437 158.279 21.2437C157.31 21.2215 156.35 21.4351 155.481 21.8662C154.613 22.2973 153.862 22.933 153.294 23.7185H153.197V21.7251H148.183L148.187 43.6142ZM156.801 34.649C154.551 34.649 153.265 32.8169 153.265 30.1489C153.265 27.4809 154.423 25.4572 156.705 25.4572C158.955 25.4572 160.016 27.3212 160.016 30.1497C160.016 32.9431 158.794 34.649 156.801 34.649Z" fill="#B4B4B4"/>
<path d="M173.799 38.7129C178.106 38.7129 181.288 36.8488 181.288 33.2484C181.288 29.0381 177.881 28.2988 174.988 27.8166C172.899 27.4271 171.035 27.2713 171.035 26.113C171.035 25.0848 172.031 24.6026 173.317 24.6026C174.764 24.6026 175.76 25.0528 175.953 26.5313H180.774C180.517 23.2846 178.01 21.26 173.349 21.26C169.46 21.26 166.246 23.0602 166.246 26.5313C166.246 30.3888 169.299 31.16 172.16 31.6422C174.346 32.0316 176.338 32.1874 176.338 33.6675C176.338 34.7284 175.342 35.3033 173.768 35.3033C172.032 35.3033 170.939 34.4994 170.746 32.8605H165.796C165.956 36.4913 168.978 38.7129 173.799 38.7129Z" fill="#B4B4B4"/>
<path d="M188.271 38.6802C189.237 38.7203 190.197 38.5107 191.059 38.0716C191.92 37.6325 192.654 36.9788 193.189 36.1735H193.286V38.1988H198.3V21.7375H193.06V30.9294C193.06 32.8901 191.97 34.2401 190.167 34.2401C188.496 34.2401 187.693 33.2438 187.693 31.4435V21.7375H182.485V32.5372C182.486 36.2015 184.479 38.6802 188.271 38.6802Z" fill="#B4B4B4"/>
<path d="M200.578 38.1964H205.817V28.9718C205.817 27.0111 206.781 25.6292 208.42 25.6292C209.995 25.6292 210.735 26.6575 210.735 28.4258V38.1964H215.974V28.9718C215.974 27.0111 216.909 25.6292 218.577 25.6292C220.152 25.6292 220.892 26.6575 220.892 28.4258V38.1964H226.131V27.4933C226.131 23.7971 224.267 21.2615 220.538 21.2615C219.496 21.2396 218.467 21.4961 217.557 22.0047C216.648 22.5133 215.89 23.2555 215.363 24.1547H215.299C214.899 23.27 214.246 22.5235 213.422 22.0088C212.599 21.4941 211.642 21.2341 210.671 21.2615C209.66 21.2278 208.659 21.474 207.779 21.9732C206.9 22.4723 206.175 23.2049 205.685 24.09H205.589V21.7398H200.578V38.1964Z" fill="#B4B4B4"/>
<path fill-rule="evenodd" clip-rule="evenodd" d="M27.0145 54.2027C32.2942 54.188 37.4512 52.6088 41.8339 49.6648C46.2167 46.7208 49.6286 42.544 51.6389 37.6619C53.6491 32.7798 54.1674 27.4115 53.1283 22.235C52.0892 17.0585 49.5394 12.3061 45.8008 8.57798C42.0623 4.84986 37.3027 2.3133 32.1234 1.2887C26.944 0.264094 21.5771 0.797409 16.7007 2.82128C11.8243 4.84515 7.65698 8.26878 4.72523 12.6597C1.79348 17.0507 0.22878 22.212 0.22876 27.4918C0.233667 31.0044 0.930393 34.4817 2.27916 37.7251C3.62793 40.9685 5.60232 43.9144 8.08961 46.3948C10.5769 48.8751 13.5284 50.8413 16.7755 52.181C20.0227 53.5207 23.5019 54.2077 27.0145 54.2027ZM35.3729 13.2241C35.7795 11.783 34.3774 10.9316 33.0967 11.8414L15.2216 24.5387C13.8327 25.5249 14.0532 27.491 15.5496 27.491H20.2569V27.4544H29.4286L21.9504 30.0842L18.6554 41.7587C18.2487 43.1998 19.6509 44.0512 20.9315 43.1413L38.8066 30.4441C40.1955 29.4579 39.9751 27.4918 38.4787 27.4918H31.3425L35.3729 13.2241Z" fill="#B4B4B4"/>
</svg>
