<svg width="227" height="55" viewBox="0 0 227 55" fill="none" xmlns="http://www.w3.org/2000/svg">
<path d="M66.7781 38.8143H83.0882V33.9021H72.5721V15.3976H66.7781V38.8143Z" fill="#B4B4B4"/>
<path d="M92.5933 35.4967C90.268 35.4967 89.056 33.466 89.056 30.4202C89.056 27.3744 90.268 25.3109 92.5933 25.3109C94.9185 25.3109 96.1633 27.3744 96.1633 30.4202C96.1633 33.466 94.9185 35.4967 92.5933 35.4967ZM92.626 39.2958C98.0297 39.2958 101.567 35.464 101.567 30.4202C101.567 25.3763 98.0297 21.5446 92.626 21.5446C87.2511 21.5446 83.6522 25.3763 83.6522 30.4202C83.6522 35.464 87.2542 39.2958 92.626 39.2958Z" fill="#B4B4B4"/>
<path d="M110.756 44.5226C113.249 44.5226 115.439 43.9656 116.91 42.653C117.66 41.94 118.247 41.0735 118.631 40.1126C119.016 39.1518 119.188 38.1193 119.137 37.0857V21.9596H114.031V23.7606H113.966C113.441 23.0069 112.732 22.4002 111.907 21.9983C111.081 21.5964 110.166 21.4128 109.249 21.465C105.09 21.465 102.208 24.9369 102.208 29.8491C102.208 34.9903 105.714 37.8078 109.479 37.8078C110.294 37.8342 111.104 37.6739 111.848 37.3391C112.591 37.0042 113.248 36.5038 113.769 35.876H113.9V37.5461C113.9 39.5769 112.95 40.7555 110.69 40.7555C108.922 40.7555 108.037 40.0022 107.743 39.1196H102.569C103.092 42.625 106.138 44.5226 110.756 44.5226ZM110.723 33.8506C108.725 33.8506 107.416 32.2148 107.416 29.6909C107.416 27.1367 108.726 25.4985 110.723 25.4985C112.95 25.4985 114.13 27.3984 114.13 29.6582C114.13 32.0138 113.048 33.8506 110.723 33.8506Z" fill="#B4B4B4"/>
<path d="M129.474 35.4967C127.149 35.4967 125.936 33.466 125.936 30.4202C125.936 27.3744 127.149 25.3109 129.474 25.3109C131.799 25.3109 133.044 27.3744 133.044 30.4202C133.044 33.466 131.799 35.4967 129.474 35.4967ZM129.506 39.2958C134.91 39.2958 138.447 35.464 138.447 30.4202C138.447 25.3763 134.91 21.5446 129.506 21.5446C124.132 21.5446 120.533 25.3763 120.533 30.4202C120.533 35.464 124.135 39.2958 129.506 39.2958Z" fill="#B4B4B4"/>
<path d="M139.901 38.8143H145.239V22.0461H139.901V38.8143ZM139.901 19.7209H145.239V15.3976H139.901V19.7209Z" fill="#B4B4B4"/>
<path d="M147.419 44.2656H152.757V36.9947H152.823C153.368 37.7329 154.087 38.3253 154.916 38.7194C155.744 39.1134 156.658 39.2969 157.574 39.2537C161.963 39.2537 164.878 35.7819 164.878 30.3454C164.878 25.3016 162.159 21.4698 157.705 21.4698C156.718 21.4477 155.74 21.6656 154.856 22.1048C153.972 22.5441 153.208 23.1914 152.629 23.9913H152.531V21.9621H147.421L147.419 44.2656ZM156.196 35.1283C153.904 35.1283 152.594 33.2588 152.594 30.5433C152.594 27.8278 153.773 25.7619 156.099 25.7619C158.392 25.7619 159.472 27.6618 159.472 30.5433C159.471 33.392 158.226 35.1275 156.196 35.1275V35.1283Z" fill="#B4B4B4"/>
<path d="M173.416 39.2958C177.805 39.2958 181.05 37.3959 181.05 33.7285C181.05 29.4379 177.578 28.6846 174.631 28.1939C172.502 27.8044 170.603 27.6369 170.603 26.4583C170.603 25.4106 171.615 24.9191 172.928 24.9191C174.402 24.9191 175.421 25.3779 175.614 26.8844H180.527C180.265 23.5769 177.71 21.5095 172.961 21.5095C168.999 21.5095 165.723 23.3432 165.723 26.8844C165.723 30.8144 168.834 31.6003 171.749 32.0919C173.976 32.4814 176.007 32.6488 176.007 34.1554C176.007 35.2358 174.994 35.8255 173.387 35.8255C171.619 35.8255 170.505 35.0068 170.309 33.3328H165.264C165.425 37.036 168.503 39.2958 173.416 39.2958Z" fill="#B4B4B4"/>
<path d="M187.89 39.26C188.874 39.3009 189.852 39.0874 190.73 38.64C191.608 38.1926 192.356 37.5264 192.901 36.7057H192.999V38.7692H198.108V22.0003H192.769V31.3674C192.769 33.3655 191.656 34.7404 189.821 34.7404C188.119 34.7404 187.3 33.7277 187.3 31.8909V21.9979H181.994V33.0048C181.994 36.7384 184.025 39.26 187.89 39.26Z" fill="#B4B4B4"/>
<path d="M200.43 38.7746H205.769V29.3755C205.769 27.3775 206.751 25.9691 208.422 25.9691C210.026 25.9691 210.78 27.0168 210.78 28.8186V38.7746H216.118V29.3755C216.118 27.3775 217.068 25.9691 218.771 25.9691C220.376 25.9691 221.129 27.0168 221.129 28.8186V38.7746H226.467V27.869C226.467 24.1027 224.568 21.5157 220.768 21.5157C219.707 21.4932 218.658 21.7546 217.731 22.2727C216.804 22.7909 216.033 23.5472 215.496 24.4633H215.43C215.022 23.5614 214.357 22.8 213.518 22.2749C212.679 21.7498 211.704 21.4843 210.714 21.5118C209.685 21.478 208.666 21.7292 207.77 22.2378C206.874 22.7464 206.136 23.4926 205.638 24.394H205.54V22.0065H200.43V38.7746Z" fill="#B4B4B4"/>
<path d="M34.8068 2.21887L29.4397 0.780884L24.9169 17.6604L20.8336 2.4214L15.4664 3.85938L19.8778 20.3245L8.88646 9.33556L4.96044 13.2647L17.0135 25.3177L2.00346 21.2959L0.564697 26.663L16.966 31.0572C16.5885 29.4285 16.5834 27.7355 16.9511 26.1045C17.3188 24.4735 18.0498 22.9465 19.0895 21.6372C20.1293 20.328 21.4511 19.2702 22.9565 18.5427C24.4619 17.8152 26.112 17.4368 27.7839 17.4356C29.4558 17.4343 31.1065 17.8104 32.6129 18.5357C34.1193 19.2611 35.4426 20.3169 36.4843 21.6247C37.526 22.9325 38.2591 24.4584 38.6291 26.0889C38.9992 27.7194 38.9965 29.4123 38.6214 31.0416L53.5263 35.0378L54.9643 29.6706L38.4983 25.257L53.5091 21.2344L52.0712 15.8672L35.6052 20.2794L46.595 9.29038L42.6658 5.35891L30.7795 17.2476L34.8068 2.21887Z" fill="#B4B4B4"/>
<path d="M38.2927 30.7488C37.8387 32.6615 36.8847 34.4191 35.5281 35.8418L46.3262 46.6407L50.2553 42.7107L38.2927 30.7488Z" fill="#B4B4B4"/>
<path d="M35.7321 35.8574C34.3643 37.2565 32.6512 38.2693 30.7661 38.7934L34.6953 53.4575L40.0624 52.0196L35.7321 35.8574Z" fill="#B4B4B4"/>
<path d="M30.566 38.8463C28.6812 39.3283 26.7033 39.3109 24.8273 38.7957L20.8943 53.4731L26.2575 54.9103L30.566 38.8463Z" fill="#B4B4B4"/>
<path d="M24.6381 38.7419C22.7798 38.1912 21.0979 37.164 19.7594 35.7623L8.93164 46.5901L12.8608 50.5192L24.6381 38.7419Z" fill="#B4B4B4"/>
<path d="M19.6681 35.8169C18.3462 34.4039 17.417 32.6696 16.9729 30.7863L2.0166 34.7933L3.45459 40.1604L19.6681 35.8169Z" fill="#B4B4B4"/>
</svg>
