<svg width="226" height="55" viewBox="0 0 226 55" fill="none" xmlns="http://www.w3.org/2000/svg">
<path d="M65.8147 38.7347H82.1209V33.8233H71.6103V15.3235H65.8147V38.7347Z" fill="#B4B4B4"/>
<path d="M91.6758 35.4328C89.3513 35.4328 88.1392 33.4028 88.1392 30.3578C88.1392 27.3128 89.349 25.2469 91.6758 25.2469C94.0026 25.2469 95.245 27.3097 95.245 30.3547C95.245 33.3997 94.001 35.4328 91.6758 35.4328ZM91.7085 39.2311C97.1114 39.2311 100.647 35.4001 100.647 30.3578C100.647 25.3155 97.1114 21.4845 91.7085 21.4845C86.3383 21.4845 82.7371 25.3155 82.7371 30.3578C82.7371 35.4001 86.339 39.2311 91.7085 39.2311Z" fill="#B4B4B4"/>
<path d="M109.889 44.4735C112.378 44.4735 114.571 43.9165 116.043 42.604C116.792 41.892 117.379 41.0267 117.764 40.0671C118.149 39.1075 118.322 38.0763 118.272 37.0436V21.9129H113.16V23.7139H113.095C112.57 22.9611 111.861 22.3553 111.036 21.9541C110.21 21.553 109.296 21.3698 108.38 21.4221C104.222 21.4221 101.34 24.8932 101.34 29.8047C101.34 34.9459 104.846 37.7611 108.61 37.7611C109.425 37.7874 110.235 37.6271 110.978 37.2922C111.722 36.9574 112.378 36.457 112.899 35.8292H113.03V37.4993C113.03 39.5294 112.08 40.7079 109.821 40.7079C108.053 40.7079 107.173 39.9547 106.874 39.0721H101.704C102.228 42.5744 105.273 44.4735 109.889 44.4735ZM109.856 33.8016C107.859 33.8016 106.549 32.1657 106.549 29.6434C106.549 27.0892 107.859 25.4525 109.856 25.4525C112.082 25.4525 113.262 27.3517 113.262 29.6107C113.263 31.9655 112.182 33.7984 109.857 33.7984L109.856 33.8016Z" fill="#B4B4B4"/>
<path d="M128.661 35.4328C126.337 35.4328 125.125 33.4028 125.125 30.3578C125.125 27.3128 126.337 25.2469 128.661 25.2469C130.986 25.2469 132.231 27.3097 132.231 30.3547C132.231 33.3997 130.986 35.4328 128.661 35.4328ZM128.694 39.2311C134.097 39.2311 137.634 35.4001 137.634 30.3578C137.634 25.3155 134.097 21.4845 128.693 21.4845C123.322 21.4845 119.721 25.3155 119.721 30.3578C119.721 35.4001 123.324 39.2311 128.693 39.2311H128.694Z" fill="#B4B4B4"/>
<path d="M139.122 38.7347H144.46V21.9705H139.122V38.7347ZM139.122 19.6452H144.46V15.3235H139.122V19.6452Z" fill="#B4B4B4"/>
<path d="M146.684 44.2117H152.021V36.9439H152.087C152.631 37.6816 153.35 38.2737 154.178 38.6677C155.006 39.0617 155.918 39.2455 156.834 39.2029C161.222 39.2029 164.136 35.7318 164.136 30.2969C164.136 25.2546 161.419 21.4236 156.966 21.4236C155.979 21.4017 155.002 21.6196 154.118 22.0589C153.234 22.4981 152.47 23.1454 151.891 23.9452H151.793V21.9144H146.685L146.684 44.2117ZM155.459 35.0767C153.167 35.0767 151.857 33.2072 151.857 30.4924C151.857 27.7777 153.035 25.7119 155.362 25.7119C157.654 25.7119 158.735 27.611 158.735 30.4924C158.734 33.3419 157.489 35.0767 155.459 35.0767Z" fill="#B4B4B4"/>
<path d="M172.727 39.231C177.115 39.231 180.356 37.3319 180.356 33.6645C180.356 29.3755 176.885 28.6222 173.938 28.1338C171.81 27.7443 169.911 27.5768 169.911 26.3982C169.911 25.3505 170.924 24.859 172.235 24.859C173.709 24.859 174.724 25.317 174.921 26.8235H179.832C179.57 23.5168 177.016 21.4533 172.268 21.4533C168.306 21.4533 165.032 23.287 165.032 26.8235C165.032 30.7527 168.142 31.5387 171.056 32.0294C173.282 32.4189 175.312 32.5864 175.312 34.0921C175.312 35.1726 174.3 35.7623 172.693 35.7623C170.924 35.7623 169.811 34.9436 169.615 33.2734H164.573C164.737 36.972 167.815 39.231 172.727 39.231Z" fill="#B4B4B4"/>
<path d="M187.332 39.1975C188.316 39.2383 189.294 39.0247 190.172 38.5772C191.049 38.1298 191.797 37.4637 192.342 36.6433H192.44V38.706H197.547V21.9417H192.211V31.3057C192.211 33.303 191.098 34.6787 189.264 34.6787C187.561 34.6787 186.742 33.666 186.742 31.83V21.9417H181.438V32.9431C181.438 36.676 183.468 39.1975 187.332 39.1975Z" fill="#B4B4B4"/>
<path d="M199.87 38.7114H205.208V29.3123C205.208 27.315 206.19 25.9066 207.857 25.9066C209.461 25.9066 210.214 26.9543 210.214 28.7553V38.7114H215.551V29.3123C215.551 27.315 216.501 25.9066 218.2 25.9066C219.804 25.9066 220.557 26.9543 220.557 28.7553V38.7114H225.894V27.8058C225.894 24.0402 223.995 21.4532 220.197 21.4532C219.136 21.4308 218.087 21.6921 217.161 22.2101C216.234 22.7282 215.463 23.4842 214.926 24.4001H214.86C214.452 23.499 213.787 22.7386 212.948 22.2143C212.109 21.69 211.134 21.4253 210.145 21.4532C209.116 21.4196 208.097 21.671 207.202 22.1795C206.306 22.6881 205.569 23.4342 205.07 24.3354H204.972V21.9448H199.864L199.87 38.7114Z" fill="#B4B4B4"/>
<path fill-rule="evenodd" clip-rule="evenodd" d="M11.6682 4.88298C9.71943 6.23817 7.95507 7.84097 6.41951 9.65107C12.6809 9.07307 20.6358 10.0172 29.8705 14.6092C39.7323 19.5168 47.6739 19.6788 53.2007 18.6186C52.7026 17.1194 52.0733 15.667 51.3203 14.2782C44.9935 14.9419 36.8828 14.0632 27.43 9.36363C22.5335 6.81868 17.1713 5.29434 11.6682 4.88298ZM47.6241 9.04659C44.2667 5.33027 39.9564 2.60353 35.1601 1.16177C30.3639 -0.279994 25.2645 -0.381803 20.4145 0.867371C23.6784 1.76797 26.8457 2.98775 29.8705 4.50907C36.7909 7.95213 42.764 9.05827 47.6241 9.04659ZM54.3824 23.9211C47.7059 25.2321 38.4851 24.9626 27.43 19.4661C17.0946 14.3249 8.8686 14.3919 3.31998 15.618C3.03384 15.6814 2.75419 15.7476 2.48103 15.8166C1.74746 17.4029 1.17062 19.0569 0.758719 20.7553C1.20325 20.6374 1.66233 20.5258 2.13594 20.4204C8.86627 18.9333 18.3767 18.9972 29.8674 24.7125C40.2028 29.8537 48.4287 29.7867 53.9774 28.5606C54.1674 28.5186 54.3546 28.4752 54.539 28.4305C54.5592 28.0026 54.5694 27.5724 54.5694 27.1398C54.5706 26.0641 54.5082 24.9893 54.3824 23.9211ZM53.651 34.1568C47.039 35.3065 38.0871 34.8649 27.43 29.5663C17.0946 24.4251 8.8686 24.4921 3.31998 25.7182C2.19569 25.965 1.08812 26.2827 0.00389487 26.6693C0.00129829 26.8251 0 26.9809 0 27.1367C0.0418615 33.7357 2.47197 40.0963 6.84088 45.0422C11.2098 49.9881 17.2219 53.1845 23.7653 54.0405C30.3088 54.8964 36.9408 53.3538 42.4348 49.698C47.9288 46.0423 51.9132 40.5207 53.651 34.1544V34.1568Z" fill="#B4B4B4"/>
</svg>
