<svg width="14" height="13" viewBox="0 0 14 13" fill="none" xmlns="http://www.w3.org/2000/svg">
<g id="rooms">
<path id="Vector" d="M7.32903 5.14337V4.47203C7.32903 3.96328 7.74494 3.55069 8.25484 3.55069H9.97329H9.97338V3.67569C10.152 3.67556 10.3256 3.73486 10.4665 3.84415C10.6073 3.95343 10.7074 4.10643 10.7507 4.27879L7.32903 5.14337ZM7.32903 5.14337H6.51127V4.47255C6.51127 3.9638 6.09536 3.55121 5.58546 3.55121H3.86692C3.44215 3.55121 3.07222 3.83823 2.96842 4.24867L2.96838 4.24882L2.74338 5.14337H2.24029V2.34846C2.24029 1.9791 2.54296 1.67712 2.91611 1.67712H10.9242C11.2974 1.67712 11.6 1.9791 11.6 2.34846V5.14337H11.097H7.32903ZM5.58604 4.2066H3.86749C3.80793 4.20647 3.75004 4.22615 3.70302 4.26252C3.656 4.29888 3.62257 4.34984 3.60803 4.40728L3.72921 4.43794C3.72922 4.4379 3.72923 4.43785 3.72924 4.43781C3.73692 4.40761 3.75455 4.38069 3.77949 4.36139C3.80449 4.34206 3.83537 4.33153 3.86722 4.3316H3.86749H5.58604H5.58606C5.66461 4.33159 5.72796 4.39534 5.72796 4.47203V5.52223C5.72762 5.5259 5.72743 5.52977 5.72743 5.53382V5.53466L5.58604 4.2066ZM5.58604 4.2066C5.73283 4.20657 5.85296 4.3255 5.85296 4.47203V5.53116C5.85296 5.53169 5.85282 5.53209 5.85269 5.53249C5.85256 5.53289 5.85243 5.53329 5.85243 5.53382V5.53489L5.58604 4.2066ZM2.24029 12.4354V11.7641H11.6V12.4354C11.6 12.6516 11.7763 12.8259 11.992 12.8259H13.0597C13.2755 12.8259 13.4517 12.6516 13.4517 12.4354V9.25007V9.25001C13.4517 9.19124 13.4453 9.1354 13.435 9.08222C13.4528 9.01847 13.4574 8.9454 13.4337 8.86944L12.3839 5.47668V2.34846C12.3839 1.54724 11.7288 0.89624 10.9242 0.89624H2.91611C2.11148 0.89624 1.45643 1.54724 1.45643 2.34846V5.4767L0.406686 8.86917L0.525959 8.90657L0.406546 8.86962L0.406604 8.86943C0.382901 8.94522 0.387658 9.01833 0.405359 9.08209C0.395076 9.13531 0.388672 9.19122 0.388672 9.25007V12.4354C0.388672 12.6516 0.564894 12.8259 0.780617 12.8259H1.84837C2.06408 12.8259 2.24029 12.6516 2.24029 12.4354ZM10.3533 5.61967L10.3529 5.62007C10.3397 5.63692 10.3227 5.6506 10.3032 5.66001C10.2838 5.66943 10.2623 5.67431 10.2406 5.67425H10.2403H8.25484C8.17623 5.67425 8.11289 5.61047 8.11289 5.5338V4.47203C8.11289 4.39536 8.17623 4.33157 8.25484 4.33157H9.97391C10.04 4.33157 10.0959 4.37548 10.1116 4.43787L10.3786 5.49952L10.3787 5.5002C10.384 5.52069 10.3845 5.54212 10.3801 5.56281C10.3757 5.58351 10.3665 5.60297 10.3533 5.61967ZM5.73369 5.49423L5.73312 5.49609L5.73398 5.49334L5.7339 5.4936L5.73369 5.49423ZM2.86937 6.10129L2.86986 6.10191C3.04732 6.32617 3.31353 6.45514 3.6 6.45514H5.58549C5.95616 6.45514 6.27301 6.2362 6.42049 5.92425H7.41978C7.56728 6.23671 7.88422 6.45514 8.25484 6.45514H10.2403C10.5269 6.45514 10.7925 6.3261 10.9699 6.10191L10.9701 6.10168C11.0147 6.04509 11.0486 5.98481 11.0756 5.92425H11.7028L12.4468 8.32873H1.39404L2.13754 5.92425H2.76419C2.7912 5.98468 2.82508 6.04459 2.86937 6.10129ZM10.3576 5.77256C10.3211 5.79022 10.281 5.79935 10.2403 5.79925L10.5023 5.58883C10.4939 5.62842 10.4764 5.66554 10.4512 5.69732C10.4262 5.72916 10.3942 5.75489 10.3576 5.77256ZM1.45642 12.045H1.17254V11.7641H1.45641L1.45642 12.045ZM12.6678 12.045H12.3839V11.7641H12.6678V12.045ZM12.6678 10.9832H1.17254V9.25007C1.17254 9.17339 1.23587 9.10961 1.31448 9.10961H12.5258C12.6045 9.10961 12.6678 9.17339 12.6678 9.25007V10.9832Z" fill="#414143" stroke="#547188" stroke-width="0.25" stroke-linejoin="round"/>
</g>
</svg>
